<svg width="1200" height="720" viewBox="0 0 1200 720" fill="none" xmlns="http://www.w3.org/2000/svg">
  <rect width="1200" height="720" rx="36" fill="url(#bg)"/>
  <circle cx="1010" cy="130" r="180" fill="#7DD3FC" fill-opacity="0.22"/>
  <circle cx="180" cy="620" r="220" fill="#CFFAFE" fill-opacity="0.18"/>
  <rect x="104" y="98" width="992" height="524" rx="30" fill="#F8FAFC" fill-opacity="0.94"/>
  <rect x="148" y="142" width="310" height="436" rx="24" fill="#E0F2FE"/>
  <rect x="494" y="142" width="558" height="212" rx="24" fill="#ECFEFF"/>
  <rect x="494" y="384" width="558" height="194" rx="24" fill="#F0F9FF"/>
  <rect x="180" y="186" width="246" height="28" rx="14" fill="#0F172A" fill-opacity="0.1"/>
  <rect x="180" y="234" width="210" height="18" rx="9" fill="#0EA5E9" fill-opacity="0.26"/>
  <rect x="180" y="280" width="178" height="18" rx="9" fill="#0EA5E9" fill-opacity="0.26"/>
  <rect x="180" y="336" width="246" height="62" rx="20" fill="#FFFFFF"/>
  <rect x="180" y="420" width="246" height="62" rx="20" fill="#FFFFFF"/>
  <rect x="180" y="504" width="246" height="42" rx="21" fill="#0284C7"/>
  <rect x="532" y="182" width="214" height="22" rx="11" fill="#0F172A" fill-opacity="0.1"/>
  <rect x="532" y="228" width="482" height="78" rx="24" fill="#FFFFFF"/>
  <rect x="532" y="420" width="222" height="20" rx="10" fill="#0F172A" fill-opacity="0.1"/>
  <rect x="532" y="462" width="482" height="78" rx="24" fill="#FFFFFF"/>
  <text x="180" y="508" fill="#FFFFFF" font-family="Arial, sans-serif" font-size="22" font-weight="700">예상 중개보수 계산</text>
  <text x="532" y="122" fill="#0F172A" font-family="Arial, sans-serif" font-size="48" font-weight="700">부동산 중개보수 계산기</text>
  <text x="532" y="160" fill="#334155" font-family="Arial, sans-serif" font-size="24" font-weight="500">한국 부동산 거래의 중개 수수료 상한 요율을 빠르게 계산하는 운영형 웹앱</text>
  <text x="564" y="277" fill="#0369A1" font-family="Arial, sans-serif" font-size="44" font-weight="700">매매 · 전세 · 월세 계산</text>
  <text x="564" y="504" fill="#0F172A" font-family="Arial, sans-serif" font-size="40" font-weight="700">SEO, 문의, 정책 페이지까지 포함한 공개 서비스</text>
  <defs>
    <linearGradient id="bg" x1="91" y1="58" x2="1098" y2="662" gradientUnits="userSpaceOnUse">
      <stop stop-color="#0F766E"/>
      <stop offset="1" stop-color="#0284C7"/>
    </linearGradient>
  </defs>
</svg>
